<svg xmlns="http://www.w3.org/2000/svg" version="1.1" xmlns:xlink="http://www.w3.org/1999/xlink" viewBox="0 0 11.101475200461115 9.526218416009748"><g transform="matrix(0.8471369512498483,0,0,0.8471369512498483,1.5766060674488886,7.120794672003202)"><g transform="matrix(1,0,0,1,0,0)" clip-path="url(#SvgjsClipPath22433)"><g clip-path="url(#SvgjsClipPath2243178097eda-9e41-4410-80f4-ce48b3ec9ca8)"><path d=" M 0.5127189570030591 -5.98994189450405 C 0.5337318889242343 -5.994146189951475 0.5523350417474963 -6.01167263296503 0.5712543712609095 -6.021132297721737 C 0.6166940888253055 -6.043854292832922 0.661595451484848 -6.06691810058211 0.7092612238542331 -6.084794901549617 C 0.8331597598140217 -6.131255784370045 0.9720510526081764 -6.155353575349187 1.1044820865440903 -6.1458939105924815 C 1.1667475312141378 -6.141446073640481 1.2277525417815518 -6.129456995362558 1.288633645267689 -6.116412570564805 C 1.3941255706710693 -6.093805937218945 1.4926103369954062 -6.044824186193253 1.5838743113419516 -5.988660097111543 C 1.6096768928531302 -5.972782900076347 1.6348471209840059 -5.953949023722435 1.6582185601073949 -5.934824606626222 C 1.6733651326288599 -5.922433898498648 1.686230105791662 -5.907787226960259 1.7060723294276798 -5.903206937611033 C 1.7138015677045018 -5.9341281633762915 1.7199584678465138 -5.965271567356254 1.7287174166953156 -5.995923615669087 C 1.75805348635184 -6.098595586808949 1.8100474612499262 -6.201212013395136 1.8739877878461821 -6.286464357970821 C 2.0931922325968912 -6.578735526752439 2.4797438722554226 -6.7456127292830095 2.843881148176969 -6.667585449343093 C 2.951911032417514 -6.644436188434406 3.055612714129358 -6.61243825285944 3.1515125223788054 -6.55649634199243 C 3.1937605644358578 -6.531851650792484 3.2359487892812595 -6.5045023670943465 3.273710540464535 -6.473606777276937 C 3.287515498381842 -6.462309869590969 3.306003289439777 -6.443745170689483 3.3232733729748305 -6.439425513476733 C 3.3457817351872645 -6.4544310882850215 3.3664485818124628 -6.4735854139870606 3.387363242600213 -6.490697409177038 C 3.4175709344836425 -6.515414735562561 3.4546362424169903 -6.5369190231508645 3.488197970810815 -6.55649634199243 C 3.5972490203073906 -6.62010767392461 3.724270869246923 -6.660881648980279 3.849664835497972 -6.676558031090647 C 3.9814036988419335 -6.693024854926396 4.11349719279782 -6.682663659336959 4.241040306010307 -6.646222159467966 C 4.28497177530952 -6.633669090337342 4.330988301700543 -6.622825084396727 4.37221090584359 -6.602213782325204 C 4.422406091734188 -6.577116189379904 4.469695870201772 -6.55044198564182 4.517481276994457 -6.5210332807997196 C 4.584899547182385 -6.479545771862221 4.654612234702899 -6.424163579189941 4.705050962098075 -6.362517669926274 C 4.77540882097282 -6.276521882862936 4.84571968060984 -6.183241213952179 4.886211660239157 -6.077958648789575 C 4.90780140098696 -6.021824468313691 4.92377686915558 -5.966143189583159 4.938338087534469 -5.907906861383561 C 4.965875368183507 -5.9193789480465036 4.9881145529435145 -5.942186396317191 5.010973273109902 -5.960887820273878 C 5.047397682346993 -5.99068960964968 5.0923588622181875 -6.017175816436863 5.134453088588137 -6.0382229296218375 C 5.291960352179477 -6.116976561417508 5.459243457217676 -6.153858145057929 5.635635869058628 -6.145039378997476 C 5.99858534606312 -6.1268934005775435 6.329233528776417 -5.893717364248501 6.498285514216277 -5.579766728901603 C 6.517286024231216 -5.544478846685867 6.538021233384011 -5.5090115128351815 6.552548270499099 -5.4712412163359545 C 6.625567995292287 -5.281389931873672 6.652468649903045 -5.0766313437365245 6.622192595492016 -4.874778163022396 C 6.607281019159176 -4.775370502575452 6.583695947137034 -4.6734505192391955 6.538448499181517 -4.582955623328155 C 6.501515643645395 -4.509089912255915 6.462220008249084 -4.433771497472165 6.409841494133249 -4.369749990374382 C 6.397091882735772 -4.354167606739464 6.382432393223459 -4.340046472132005 6.36967850916801 -4.324459815839113 C 6.348815120275959 -4.29896059304416 6.326058943900972 -4.2693510732772335 6.3004614499725955 -4.2484065038836585 C 6.268386606554079 -4.222163838601052 6.236833027408516 -4.195182003488766 6.204753911332023 -4.168935065548185 C 6.139211337995134 -4.11530893530364 6.05896654856618 -4.08017059611703 5.987275620403228 -4.036055402524892 C 5.9452668471927765 -4.010205821775988 5.895357929386503 -3.9884280840772823 5.85695955216495 -3.95701122998692 C 5.816177031793332 -3.9236417712019707 5.773441906727126 -3.8925624570916346 5.732625205091708 -3.859167362358836 C 5.6876512072465895 -3.8223669592199405 5.647492494939325 -3.7779014076738506 5.610854452803481 -3.733123952095584 C 5.5878077356861935 -3.704954318066241 5.5638381244463 -3.6775580351303776 5.540782862013064 -3.6493798557850847 C 5.5232906002633095 -3.6279994752780564 5.512980676569573 -3.600684372843719 5.495492687477792 -3.579308264994665 C 5.478970319088369 -3.5591114107467203 5.463464843297001 -3.5356972450435813 5.451057044537529 -3.512654800584268 C 5.441862284575273 -3.4955812593160664 5.436201012758363 -3.476529477405427 5.4275574256748875 -3.45924657589645 C 5.390252848894939 -3.3846374223365547 5.356947479979615 -3.308455930641849 5.333986216021829 -3.22809577944757 C 5.315656513308969 -3.1639503652685126 5.300838935451581 -3.09965540806033 5.292541433664081 -3.033262575786408 C 5.28734588156645 -2.9916938863473854 5.280885622708213 -2.947899142103374 5.286132446701543 -2.9059373681306466 C 5.314438805786086 -2.8870650378549603 5.350188135063125 -2.8788230806211357 5.380558187949608 -2.8636380541778963 C 5.421203983266024 -2.8433130201907 5.456919131279263 -2.8149511165524808 5.4801111187677 -2.7751940340948673 C 5.5134378509729 -2.718064324310801 5.510446990390381 -2.6573370365117652 5.510446990390381 -2.5931788043587813 C 5.510446990390381 -2.533498317763626 5.512570501403969 -2.473296566895516 5.509592458795376 -2.41372716940771 C 5.503555193076665 -2.2929861276914654 5.510019724592879 -2.1713649184323636 5.510019724592879 -2.0505512415305436 C 5.510019724592879 -1.9214443354991984 5.503999549506068 -1.7906497295677175 5.510446990390381 -1.6617393658032231 C 5.512314141925469 -1.6244262437073251 5.543474636537328 -1.6078184221584024 5.571545999433246 -1.5891041802277908 C 5.610363097136353 -1.563224690873061 5.653140948782309 -1.532102650182976 5.683062372581411 -1.4955329705747316 C 5.7154662106640055 -1.4559254311462446 5.745511541544383 -1.4186464903141482 5.770224595271932 -1.3733349524890022 C 5.824794982928957 -1.2732906660037804 5.83274639942048 -1.1327244912834171 5.792015150944562 -1.0268223907144343 C 5.763110619743515 -0.9516706095917105 5.714902219811302 -0.8761983791208614 5.654862829946244 -0.8221620737107127 C 5.613785496174348 -0.7851907642528193 5.56564973142771 -0.7577133008154302 5.523264964315457 -0.7230364086901213 C 5.462379588171345 -0.6732214893592996 5.3838737705382265 -0.6426591668639405 5.313904723539208 -0.6076746433644349 C 5.268388098131263 -0.584918466989448 5.219055989151619 -0.5666571268041869 5.171197947173358 -0.5495664949040844 C 5.120827582305782 -0.5315786048292273 5.070803302734183 -0.5126763659477147 5.020373120654958 -0.49487647282376024 C 4.959667196145794 -0.47345336573698127 4.89672239885772 -0.45911859823077084 4.83493976453885 -0.44146824813594243 C 4.61450052163336 -0.37848499692609217 4.3885623679140116 -0.34013789160023844 4.161568867674833 -0.30987038250515564 C 4.049138145720013 -0.29487762567079123 3.937536319412345 -0.28050867690078185 3.824028887647818 -0.27483458710994846 C 3.7462323312385535 -0.27094646835267344 3.6688630406267926 -0.2594487457418806 3.591169028008929 -0.2538985630323234 C 3.508493096192186 -0.24799374971083665 3.4241593730811326 -0.25176223404481046 3.341218536469938 -0.25176223404481046 C 3.261802642688138 -0.25176223404481046 3.1812544945429586 -0.2477972074439867 3.10194968986851 -0.25176223404481046 C 3.0205683734181994 -0.2558298044370346 2.939712593898817 -0.265567191962119 2.858408185292056 -0.27098919493242324 C 2.6162040226617864 -0.28713556942004637 2.376512182920831 -0.31449767109210924 2.1388925822977622 -0.36541493618048726 C 2.0336313804250357 -0.3879702976306474 1.926404755883795 -0.4041508533820686 1.8227158921458757 -0.43377746378089466 C 1.7493671726886135 -0.4547348511483946 1.6773045232818342 -0.48032807241879727 1.603955803824572 -0.5012854597862999 C 1.5367554391933702 -0.520486784726061 1.4666026679014263 -0.5446315749429314 1.403140878998373 -0.5739206453617314 C 1.3638751522078885 -0.5920452604917879 1.3236438047150492 -0.6079181848690096 1.284360987292664 -0.6260470726570437 C 1.1501653456130634 -0.6879835226630133 1.0187469316172286 -0.7707577256131826 0.9246031857955177 -0.8858246775385927 C 0.8723229428131055 -0.9497222775550984 0.8294852739554995 -1.0272411111959867 0.8190685338123885 -1.1105664870249345 C 0.8141763404309843 -1.1497211247080683 0.8134200799694035 -1.1927510631745513 0.8186412680148849 -1.2319099735156591 C 0.8250417096614728 -1.2799132858650708 0.8411795388331443 -1.3248915563681631 0.86136784776514 -1.3686350287164748 C 0.8981468876141603 -1.4483200999507009 0.9668811364583954 -1.51361485912504 1.0335559641586685 -1.5681681561501648 C 1.0648959104054798 -1.593808376658294 1.1039907308769628 -1.6112579118282966 1.1326816291792583 -1.6399488101305932 C 1.1425557417595438 -1.6629827092739573 1.1365270213567822 -1.6968905229637574 1.1365270213567822 -1.7215565774535806 C 1.1365270213567822 -1.7827965842096223 1.1365270213567822 -1.8440408636236363 1.1365270213567822 -1.905280870379677 C 1.1365270213567822 -1.9266441602548046 1.1365270213567822 -1.948007450129932 1.1365270213567822 -1.9693707400050595 C 1.1365270213567822 -1.980125020128197 1.1361040282172543 -1.991879102217494 1.1459268689018383 -1.9984248142352339 C 1.1568648733179032 -2.1296723219120652 1.1493449952818584 -2.2646669506329964 1.1493449952818584 -2.396636537507609 C 1.1493449952818584 -2.432326049572998 1.1494133578094594 -2.467866018609259 1.1476359320918477 -2.5034529868832465 C 1.1467386739170928 -2.521376787088479 1.1482298315503772 -2.53610463912839 1.1378088187492894 -2.5517340220010345 C 1.134480418186745 -2.575024280622899 1.1365270213567822 -2.599592063979295 1.1365270213567822 -2.6230874101839605 C 1.1365270213567822 -2.705173715200149 1.149960258030262 -2.7828420918701626 1.2168529912872612 -2.8375748405302392 C 1.2433477433903943 -2.8592500344375447 1.2776101876921238 -2.8733797143609534 1.3087151377503095 -2.886710407243032 C 1.321994558736688 -2.8924015876657676 1.3465153428553593 -2.901472440546747 1.3518689832980668 -2.9161917472707084 C 1.3585727836608825 -2.9346282664329433 1.3550051142517356 -2.9608922950054253 1.3522962490955692 -2.979854351098589 C 1.3476390519027919 -3.012454731448033 1.3459684426345568 -3.045409742409405 1.3390510093729906 -3.0776982187266726 C 1.3073735231461516 -3.22551936668863 1.2690947803478978 -3.368943949594286 1.196771498804641 -3.503254953039212 C 1.1535834719930835 -3.58346128854639 1.0990002663621337 -3.6545113180130904 1.041674014311216 -3.724578636145533 C 1.0151322629703572 -3.7570209281499016 0.9863687294824862 -3.7935222452305437 0.9536572600256905 -3.8202861747861037 C 0.9145709848701566 -3.8522627470711948 0.8773817698555356 -3.8865764632686246 0.8382954947000029 -3.91855730821169 C 0.8201922428598187 -3.933370613411103 0.8000381151916242 -3.945586142561702 0.7818964094296657 -3.9604293563669404 C 0.7593282300055821 -3.978895784135 0.7317225868289412 -3.9945379849815685 0.7066976290692175 -4.009137657282231 C 0.641078147888775 -4.0474164000804835 0.5758047520043116 -4.0862035891777655 0.5101553622180449 -4.12449942260792 C 0.41018371091839806 -4.182816931309043 0.3225130419288492 -4.270278240057815 0.2456778335639664 -4.355650219056798 C 0.20638647082563216 -4.3993082382456095 0.17342291454830977 -4.451571390596121 0.14569763694836937 -4.503056919195178 C 0.10317187212294074 -4.582028456547574 0.06582456876324287 -4.6623330631881785 0.04101751656024431 -4.749162018556646 C 0.031515125223788125 -4.78241611557627 0.026046123015755592 -4.817024645173976 0.018799695090112613 -4.850851278362255 C 0.0057424523184349575 -4.9117793810861174 0.0061697181159367535 -4.9754505302299465 0 -5.037139166073365 C 0.005426275628282415 -5.058848541244469 0.003157494243544407 -5.083211237018064 0.004272657975025621 -5.105501693673773 C 0.006413259620513267 -5.148279545319728 0.013065788087627915 -5.191232575942659 0.01837242929260964 -5.233681432924538 C 0.023136442934763416 -5.271780724087839 0.033937722295627866 -5.310593549132972 0.04443564294026575 -5.3473341350602155 C 0.06476067692746144 -5.41846534502844 0.08913191801700736 -5.4887548413755844 0.12433434707324185 -5.55413078105145 C 0.14851759121188618 -5.599040689026943 0.17161130756689888 -5.647565265649307 0.20423305120621854 -5.6874377098722455 C 0.22096477983641838 -5.7078866509407185 0.23449201498534972 -5.731065820455231 0.2512322889314992 -5.751527579497628 C 0.2912243675777383 -5.800411059389894 0.335288289274176 -5.847132574346799 0.3824028887647822 -5.889534432090951 C 0.40735521133893043 -5.9119915224076856 0.43469594972111913 -5.931154393425674 0.46059252970774817 -5.952342504323827 C 0.47596982575986535 -5.964925482060276 0.5016399548738177 -5.973325527639176 0.5127189570030591 -5.98994189450405 M 5.119071519878045 -2.9815634142885994 C 5.123032273820895 -2.99080517348858 5.122963911293294 -3.002016628015046 5.124198709448078 -3.0118992859112805 C 5.127232296610345 -3.036176528525374 5.131675860904372 -3.060334136716168 5.135307620183143 -3.0845344714867133 C 5.145139006183677 -3.1500770448236044 5.162861991464084 -3.2149488108584166 5.181025060515916 -3.2785131435528716 C 5.2397057451449145 -3.4838912670963973 5.346812735262855 -3.673409284236627 5.480965650362707 -3.837376806686206 C 5.533245893345118 -3.901274406702712 5.596515412639296 -3.9645439259968893 5.660417285313778 -4.016828441637277 C 5.688727917056295 -4.039994793177865 5.719285966893678 -4.0603326451389865 5.747579508004297 -4.083481906047674 C 5.779603079527114 -4.109681844750531 5.8151558665372995 -4.134369262530228 5.8509778309999145 -4.155262560028103 C 5.9513212035433884 -4.213797974285951 6.059295543230258 -4.269769793758786 6.149636623454196 -4.343686776726727 C 6.195392517708744 -4.381123805903901 6.241652585604343 -4.424709189907135 6.27952542589497 -4.470157452787482 C 6.388127846304168 -4.600477793683734 6.450333473762567 -4.775532863578503 6.4670951109985895 -4.943140690622803 C 6.476289870960845 -5.035101108219278 6.473700640227982 -5.132786887502285 6.454277137073514 -5.2234270537844765 C 6.3975490571391 -5.488160941917057 6.239802524701157 -5.722110329339578 6.004793518100832 -5.859198560468271 C 5.951543381758088 -5.890260783946705 5.894285492234773 -5.919947211557182 5.834741730694817 -5.936960935613733 C 5.747536781424547 -5.961874804266109 5.6635747795573215 -5.984289168003091 5.571545999433246 -5.979687515363989 C 5.4932153607771035 -5.975769488000891 5.415153899573388 -5.971672009002842 5.3408224687818695 -5.943797188373775 C 5.215176415710294 -5.896682588883168 5.085052617080893 -5.8268801755451785 4.998582564982328 -5.721191707874946 C 4.965666007942731 -5.680956087724132 4.932971629117835 -5.62460400169152 4.872966420516578 -5.633174953589422 C 4.863434120574295 -5.634537931483455 4.85408554492494 -5.63619999543574 4.845194143678912 -5.640011206349461 C 4.796007305070418 -5.6610925007982384 4.793272803966402 -5.71670541700117 4.790931387396088 -5.763491021827699 C 4.788286612109547 -5.816352346294715 4.775912994613873 -5.868401865746476 4.761450047368413 -5.919015772118628 C 4.727273056226183 -6.038641650103391 4.668250558959181 -6.143539676048242 4.590116462569891 -6.2390378544480365 C 4.551380545368308 -6.28637890481132 4.499929198033052 -6.320598622533298 4.453391407369074 -6.3586722777487505 C 4.411190364549747 -6.3931996268449325 4.358329040082731 -6.417310235798 4.309830099408217 -6.441561842464245 C 4.098521526595357 -6.5472161288706765 3.823199992000664 -6.536214034584986 3.613386849479062 -6.431307463324185 C 3.545592585389332 -6.397408194950332 3.483921040177814 -6.35023805090605 3.425817164375442 -6.3027004582759165 C 3.392986060495346 -6.2758382575869325 3.3640644386623992 -6.222942751856115 3.3155825886197854 -6.225365348927954 C 3.2814440513993315 -6.2270744121179655 3.2475319650515546 -6.269916353633546 3.225002239549244 -6.292446079135855 C 3.1782679066184163 -6.3391804120666855 3.122565264598008 -6.377142978174787 3.0664866286757992 -6.411653236639068 C 3.0353688606436875 -6.430803289683131 2.9985086402931427 -6.447129115805703 2.9639428372751864 -6.458652474364348 C 2.9271210708464173 -6.470927820726596 2.8919442777380313 -6.485946213508811 2.8541355273170312 -6.495397332949567 C 2.74433249001685 -6.5228491604391055 2.62100221756774 -6.523750691271835 2.5106138261249815 -6.500097256722095 C 2.456432250343684 -6.488488445003951 2.3988539114722394 -6.477759800828662 2.348680088871515 -6.452670753199312 C 2.2974295564610836 -6.427047623323084 2.2400221239086417 -6.403389916115367 2.1952916675680996 -6.366790327901299 C 2.167096397590906 -6.343722247494136 2.1380679593085827 -6.3215257893138785 2.1098385080675897 -6.2984278003008916 C 2.0473380672089174 -6.247288356997812 1.999480025230656 -6.175652973388534 1.959440947346692 -6.107012723019749 C 1.940132805957552 -6.073916714345201 1.9191455099842276 -6.03768030205901 1.9077417858488834 -6.000623539441614 C 1.8892198135271483 -5.940421788573505 1.8671686257180409 -5.881813739130081 1.8577516875410856 -5.8190355755030305 C 1.8474802177691243 -5.750557686137297 1.8642973995588255 -5.656601937266486 1.7774257176106065 -5.634884016779432 C 1.7155063582365369 -5.619404176935915 1.6762363587880778 -5.671637420680601 1.6419824598022985 -5.713500923519901 C 1.6046949736542513 -5.759073093481522 1.5561063071622605 -5.79386107471418 1.5112391257665179 -5.8305717520356 C 1.482428593040921 -5.854144006083816 1.4498923025611028 -5.877716260132031 1.4159588529234495 -5.893379824268475 C 1.3412770641779785 -5.927847356153005 1.2572680630730282 -5.9612851774655535 1.174980943132011 -5.971569465211441 C 1.0856994820858787 -5.9827296478422065 0.9918206410586188 -5.985852960821951 0.9032398959203902 -5.966869541438912 C 0.7527526093820168 -5.934623791701396 0.6170401741212822 -5.86166388411986 0.49861918568547575 -5.764772819220206 C 0.47794379374432705 -5.7478573662970796 0.4598448145621187 -5.725998448096851 0.4409383030226314 -5.707091936557362 C 0.3852185703703244 -5.651372203905056 0.3412742830971868 -5.593862227561212 0.3016496530367995 -5.525931238416282 C 0.2847427454296247 -5.496949799371683 0.26681039990844224 -5.467818817297959 0.25465041531151944 -5.436205420940747 C 0.23494491673070228 -5.3849677065042405 0.21424816149967854 -5.33539205602002 0.19910586163618815 -5.282389733839828 C 0.18192123126063575 -5.222243527525395 0.17582414833027446 -5.1589440996253915 0.16962452160851238 -5.096956377723722 C 0.16157483398356443 -5.016455228816267 0.1726623814287555 -4.932232594812564 0.1884242166986244 -4.853414873147268 C 0.22977072792294664 -4.64668231702566 0.34567939346943793 -4.463769829114819 0.5075917674330294 -4.331296068599153 C 0.5896396185274428 -4.264164066495552 0.6847618030254368 -4.216981104477346 0.7759146882646298 -4.163807875978153 C 0.8471099881024796 -4.122277640460906 0.9138659963042784 -4.071522736375579 0.9775841446858335 -4.019392036422292 C 1.0416782869691907 -3.9669494324368295 1.105981789493325 -3.9104093494533156 1.1587448428269145 -3.8459221226362574 C 1.241091779979581 -3.7452753913765564 1.3143208650135432 -3.6385956670561197 1.3728050073756919 -3.521627382331822 C 1.4172620136058316 -3.432717642529516 1.4491702233633228 -3.334510598973556 1.4732124697887914 -3.238350158587631 C 1.4885342212872326 -3.177063152593865 1.5053727663668077 -3.1132980049745855 1.5116663915640203 -3.0503532076865096 C 1.513375454754031 -3.033249757812482 1.516229590281347 -3.0161334899645302 1.518502644324062 -2.999081311986203 C 1.5190623625187891 -2.9948684712228286 1.5208825148161509 -2.9860411598464247 1.5253388970841024 -2.9845542748711162 C 1.5525685463589403 -2.975479149332163 1.5915736410129473 -2.997620062958744 1.617628309344652 -3.0050630331512402 C 1.661837501412241 -3.0176930101254156 1.7058800598188055 -3.0308869779522936 1.7500807065704431 -3.043516954926469 C 1.7762208280616492 -3.0509855610668146 1.8049288169958453 -3.0554248527028642 1.82997941070342 -3.0661620421941036 C 1.8130853210701687 -3.28578093476839 1.7632020392117471 -3.515312393844733 1.6462551177773235 -3.7053516752579183 C 1.6194185530361882 -3.7489626952090034 1.597375910543031 -3.7973761827240167 1.5646473504543372 -3.837376806686206 C 1.5030911670081437 -3.912609768310455 1.4438037649466904 -3.984800597456485 1.3681050836031645 -4.0467370474624555 C 1.3326633857003276 -4.075735577138954 1.2830407359783813 -4.098329392510888 1.2911972400527045 -4.152698965243088 C 1.2971917791916663 -4.192656862625526 1.3359234237352708 -4.2222022925228275 1.3757958679582099 -4.220206961248491 C 1.391861061944306 -4.2194037015491865 1.4057600183370635 -4.212276908046842 1.419804245100972 -4.205252658335901 C 1.4522038105255908 -4.189055011952579 1.4755239777532796 -4.15733479914599 1.503121075613969 -4.13475380174798 C 1.553555530351171 -4.093488471025184 1.600311226571875 -4.045878243209476 1.641555194004796 -3.99546515176215 C 1.7954349709753388 -3.8073870203595015 1.8999441850444616 -3.581235233741402 1.9508956313966408 -3.3434575447732575 C 1.9681016250620689 -3.263152938132655 1.9741987079924315 -3.1797506544601566 1.9940494769443995 -3.1003433059943073 C 2.090803816788852 -3.1077862761868023 2.185229558036914 -3.1395705788630175 2.2815993586636143 -3.1516152016946135 C 2.345958405741425 -3.1596606166615873 2.4095312837518277 -3.173482665210795 2.473868967539762 -3.1815238075197922 C 2.5076998733860134 -3.1857537389150674 2.5442140084405818 -3.1865057267186727 2.5772672905353793 -3.194769047242371 C 2.583723276735642 -3.2205887193854514 2.5768656606857268 -3.25069386747748 2.5755582273453688 -3.276804080362861 C 2.572921997374778 -3.329541497748601 2.5697046859195845 -3.3823259143720654 2.564449316610303 -3.4348924254388047 C 2.5477047700061775 -3.602329346164104 2.510707824600432 -3.7687621922652723 2.4516511460696297 -3.9262480925667362 C 2.4268526391825813 -3.992371747388231 2.4010842389352027 -4.059811380866034 2.3653434549741137 -4.121081296227898 C 2.3208693581120747 -4.197322605134254 2.2746221081903975 -4.269466435042558 2.21879128643074 -4.337705055561692 C 2.1887374102344106 -4.374437096172986 2.1331330393474284 -4.400572945006216 2.141456177082779 -4.456057681469899 C 2.146463732229509 -4.489452776202697 2.183849489510982 -4.522736781828145 2.217509489038232 -4.524420209070305 C 2.2372619868567747 -4.525407193062536 2.2560574092889123 -4.517237871014287 2.2721995111185582 -4.506475045575199 C 2.301091224345681 -4.487213903423783 2.3251804700088754 -4.458335008170586 2.3469710256815053 -4.431703531012253 C 2.3914750311493695 -4.377308322332203 2.4365643907598145 -4.323101110603055 2.472159904349751 -4.26207900940374 C 2.592063505102892 -4.056529979541214 2.6779610210328046 -3.8214056111755603 2.707583358773656 -3.584435454564696 C 2.7168122999997117 -3.5106167427301815 2.732057143654603 -3.43675957697389 2.7357829014088244 -3.362257239863371 C 2.7375645997844105 -3.3266446356415336 2.7385387658027165 -3.2910320314196957 2.7409100909788555 -3.255440790487733 C 2.7418158944695605 -3.2418622834431017 2.7414954451214335 -3.2248827406503513 2.746891812143891 -3.212286944939976 C 2.8682908431882908 -3.212286944939976 2.9889079778232595 -3.2315139058275917 3.1104950058185614 -3.2315139058275917 C 3.1404847921452643 -3.2315139058275917 3.170222491651443 -3.2340775006126057 3.2002208232940963 -3.2340775006126057 C 3.2132310668280493 -3.2340775006126057 3.229056991967544 -3.231817264543817 3.238247479271824 -3.2430500823601593 C 3.2440540214598834 -3.2501469672566765 3.2408110740568383 -3.2640074697276598 3.240383808259336 -3.2725314223878357 C 3.2393156437655803 -3.293864803657137 3.2391020108668274 -3.3152323661902403 3.2391020108668274 -3.336621292013217 C 3.2391020108668274 -3.4263471094887534 3.2391020108668274 -3.5160729269642887 3.2391020108668274 -3.6057987444398236 C 3.2391020108668274 -3.7524919106963748 3.2391020108668274 -3.899189349610899 3.2391020108668274 -4.045882515867451 C 3.2391020108668274 -4.122521181965483 3.2357052477766834 -4.200087014844095 3.239529276664331 -4.276606046518827 C 3.2428704952008003 -4.3434517805381 3.240460716102886 -4.410579509983727 3.243801934639356 -4.477420971345026 C 3.2452930922726404 -4.507274032616529 3.2406743490016376 -4.540814397720478 3.2544835795769207 -4.568428586213068 C 3.286225155673385 -4.6319117384059965 3.3869829760404353 -4.624208136077026 3.404453874500314 -4.554328814895484 C 3.4081155423849117 -4.539686416015072 3.4057356718928227 -4.522352242610394 3.4057356718928227 -4.5073295771702035 C 3.4057356718928227 -4.478843766450709 3.4057356718928227 -4.450362228389189 3.4057356718928227 -4.421876417669694 C 3.4057356718928227 -4.327877942219133 3.4057356718928227 -4.233879466768572 3.4057356718928227 -4.139880991318011 C 3.4057356718928227 -4.021669363122982 3.4057356718928227 -3.9034620075859254 3.4057356718928227 -3.785250379390895 C 3.4057356718928227 -3.6627660932208395 3.4057356718928227 -3.5402860797087574 3.4057356718928227 -3.417801793538702 C 3.4057356718928227 -3.379347871763472 3.4057356718928227 -3.3408939499882435 3.4057356718928227 -3.3024400282130135 C 3.4057356718928227 -3.28083319683331 3.4032019857136326 -3.25743612176207 3.407444735082833 -3.236213829600119 C 3.421476143872817 -3.2306038296789095 3.437511429253088 -3.232368437422595 3.4523076438206 -3.232368437422595 C 3.4814258079203997 -3.232368437422595 3.5112788691919024 -3.2343039514852823 3.540324398106126 -3.232368437422595 C 3.6076785784244274 -3.2278778738908436 3.675413025302507 -3.2259124512223325 3.7428483861223345 -3.2225413240800367 C 3.7764613864118592 -3.2208621694958515 3.8101085679651856 -3.2175166783014078 3.843683114332936 -3.215277805522494 C 3.858808323564526 -3.214269458240388 3.875270874742299 -3.211855406484498 3.890255086260714 -3.2148505397249916 C 3.8993814836953686 -3.260473981582314 3.8995481173563946 -3.3098231811938574 3.9026457943882877 -3.356275518698335 C 3.9073542634767655 -3.4269025550255074 3.919086982276186 -3.4972176873205014 3.927854476440939 -3.567344822664595 C 3.937104780956868 -3.641338713476086 3.954844856869175 -3.716281134358033 3.9752809799637214 -3.787813974175909 C 3.9935508654649303 -3.8517585734301423 4.010846584947834 -3.9151263638577447 4.034243660019072 -3.9775199882670425 C 4.050296036031243 -4.020327748518822 4.062857650477818 -4.06593837240222 4.083379226731865 -4.106981524910315 C 4.108929721422519 -4.158078241633644 4.134561396614696 -4.208576786240471 4.163277930864843 -4.257806351428714 C 4.2178355005479435 -4.351334834502023 4.277178447163073 -4.443444795127622 4.3615292609060266 -4.512456766740234 C 4.41011365474004 -4.5522095765398705 4.484158817447233 -4.522907688147146 4.492272594941807 -4.462039402634934 C 4.499117393017796 -4.410699144407026 4.457262435494448 -4.386400538503056 4.428609991113927 -4.351377561081772 C 4.408169595361404 -4.326395329901799 4.3862722232393985 -4.302481263215582 4.365801918881052 -4.277460578113833 C 4.336457303908576 -4.241595887071467 4.3150641054276235 -4.199018850350338 4.291030404318105 -4.159962483800631 C 4.1617013200720585 -3.949803255983052 4.105075783929045 -3.69391804251675 4.074833910781815 -3.451983057338906 C 4.067570392224272 -3.3938620909046344 4.062802105924144 -3.3352412234872837 4.059879607869226 -3.276804080362861 C 4.058644809714444 -3.2521294805570884 4.049462867726114 -3.215085535913618 4.059452342071723 -3.191778186659853 C 4.094107870907154 -3.1840788569888576 4.130673277857422 -3.1857836475208927 4.165841525649858 -3.181096541722289 C 4.234913314474121 -3.171884691128135 4.305326717902542 -3.165796153513724 4.373492703236097 -3.151187935897111 C 4.432955284274526 -3.138446869815585 4.493494575122664 -3.1297477381784327 4.552944338187168 -3.1170066720969074 C 4.583545114604301 -3.110448142105244 4.616410399748198 -3.1024796349818193 4.6477973452327355 -3.1024796349818193 C 4.653215075545068 -3.110610503108294 4.6530228059361916 -3.122069771797312 4.654206332195273 -3.1315337092119946 C 4.656898106719538 -3.1530550874321976 4.661674938335615 -3.174196199092623 4.664887977132836 -3.195623578837377 C 4.674377550495368 -3.258897370789529 4.68918231037883 -3.323803318088141 4.7067600252880855 -3.385329592928509 C 4.7469101922794 -3.5258487684111466 4.7977206409184046 -3.660886123711827 4.8669846993515415 -3.78952303736592 C 4.892859916048296 -3.837577621611032 4.920700555413563 -3.8889306978128637 4.95542871943457 -3.9313752821367673 C 4.984273433423967 -3.966628983088702 5.0119987110239075 -4.002891031322744 5.040881878935081 -4.038191731512404 C 5.091824779971308 -4.10045717618245 5.158508152987531 -4.1507463605485 5.219906248088647 -4.200980000360875 C 5.269541715784519 -4.241591614413493 5.348162895182962 -4.22921799691782 5.361758492859495 -4.161244281193138 C 5.371859056312456 -4.110737191270363 5.3300340073949295 -4.082888006589146 5.296814091639106 -4.055709629210009 C 5.277215409507664 -4.039674343829738 5.257044191207569 -4.024335501699397 5.237424145786253 -4.0082831256872264 C 5.184682455742538 -3.9651292801394677 5.143327399202266 -3.9065725025917435 5.100699090585437 -3.8544674385863087 C 5.076464574551093 -3.8248493735034317 5.055024376832414 -3.790087028218624 5.035754689365048 -3.757050836755727 C 4.945776785068988 -3.6027993385413555 4.881011835483551 -3.440822874708139 4.843485080488902 -3.2656951696277954 C 4.829291310695867 -3.199464698356924 4.816140069448737 -3.132003701589247 4.816140069448737 -3.0640257132065907 C 4.824493115789914 -3.058458439865132 4.835606299182954 -3.0574500925830277 4.845194143678912 -3.055053131459037 C 4.867980228659723 -3.0493576783783283 4.890770586298509 -3.043657952639644 4.91355667127932 -3.0379624995589354 C 4.95293775983513 -3.0281182955844765 4.991639495772911 -3.016201852492131 5.030627499795019 -3.0050630331512402 C 5.060121657796619 -2.996637351624489 5.087825572106684 -2.9815634142885994 5.119071519878045 -2.9815634142885994 M 1.4245041688735007 -1.560904637592623 C 1.3751891505257556 -1.553859024591806 1.335350887566619 -1.5323162830817258 1.2903427084576997 -1.5126236024748332 C 1.1599839136396715 -1.4555921638241935 0.9949909532760874 -1.3561802307192767 0.9869839922308895 -1.1960196465254445 C 0.9854201994120309 -1.1647181542004077 0.9873044415790166 -1.1349847273522062 0.99382024499093 -1.104584765859899 C 1.0004813187739956 -1.073505451749564 1.0172301380360946 -1.0403709891532396 1.03740135633619 -1.01571347997937 C 1.1786383383586339 -0.8430895524723887 1.394471655967046 -0.7630327599943367 1.597974082659535 -0.686718815902406 C 1.7220990694920015 -0.6401724799224775 1.8512017028653722 -0.6025474537944016 1.9808042372218195 -0.5747751769567362 C 2.1293132831177557 -0.5429524203587466 2.2757159086320047 -0.5043703188442672 2.426869729814482 -0.4854766252787037 C 2.568679248005578 -0.4677493673403239 2.710975849205827 -0.44093416588906376 2.8541355273170312 -0.43377746378089466 C 3.0818254708061397 -0.4223951029354289 3.3096948659302 -0.4125466263029933 3.5377608033211105 -0.4239503504383384 C 3.6154719065708747 -0.4278341965376349 3.693400915377364 -0.4277444707201594 3.7710479287575023 -0.43292293218588984 C 3.8688576151217866 -0.439443008255779 3.9660819473434903 -0.4519618961226044 4.063297734249246 -0.46411333540357447 C 4.146469294391092 -0.4745087122568128 4.23080729016012 -0.48456654913002506 4.312820959990735 -0.502139991381302 C 4.352573769790373 -0.5106596713835048 4.393518651165041 -0.5141205243432747 4.433309914886454 -0.5226487496614265 C 4.527188755913715 -0.5427644234078475 4.622849295316559 -0.5603207750272272 4.715305341238137 -0.586738619286808 C 4.962388879275887 -0.6573357470081547 5.211100300002121 -0.7299111153719373 5.4318300836499125 -0.8657431850559725 C 5.531378741810031 -0.92700455510189 5.6415065011163135 -1.011158826577991 5.650590171971218 -1.1383387638626008 C 5.652739318932657 -1.1684097306908283 5.656289897709901 -1.2005572092949208 5.648881108781207 -1.2302009103256477 C 5.644031641979554 -1.2495987775322632 5.633666173732142 -1.2660869646578874 5.625381489918568 -1.2840364008109688 C 5.576284377127549 -1.3904084937572048 5.47086935956772 -1.4506615165210137 5.369022011417037 -1.4976692995622436 C 5.3312047156800855 -1.5151231073902238 5.294451311778918 -1.5351405100032176 5.25536930928136 -1.549795726857556 C 5.248588601074994 -1.5523379583526955 5.2214956768553575 -1.562921332156833 5.21520632431612 -1.5566319796175963 C 5.213663894787136 -1.5550895500886126 5.217872462892536 -1.549005285132175 5.218624450696141 -1.5480866636675454 C 5.225144526766029 -1.5401138838861481 5.2341256538295315 -1.5351490553191676 5.241269537963775 -1.5280051711849252 C 5.270827785835001 -1.4984469233136997 5.30648311663659 -1.4729861544405223 5.333131684426823 -1.4404156826969015 C 5.401682208978134 -1.3566331324646272 5.477940608516389 -1.2538030729796876 5.445075323372492 -1.1387660296601014 C 5.43458167538583 -1.1020425343647595 5.408941454877702 -1.0735780869351386 5.38269451693712 -1.047331148994556 C 5.3226337637821866 -0.9872703958396238 5.244687664343796 -0.9467570529204323 5.16820708659084 -0.9114606253887452 C 5.121348846578734 -0.8898367033771413 5.075451954611011 -0.8659269093488993 5.0272093734149985 -0.8473707557633636 C 4.848454181713856 -0.7786194162872286 4.662337200321746 -0.7259674520609884 4.475181963041704 -0.6858642843073985 C 4.39421509441497 -0.6685130202708232 4.312145880030682 -0.6478589916195485 4.229931395275241 -0.6375832491896114 C 4.048087071858156 -0.6148527087624762 3.8665717431051467 -0.5843801120845944 3.6830311744719766 -0.5752024427542395 C 3.6047774436593856 -0.5712886880491173 3.526292989316142 -0.5718526789018199 3.448034985845575 -0.5679389241966959 C 3.38679070643156 -0.5648754284286035 3.3230853760239296 -0.5612863957295815 3.2617470981344634 -0.5653753294116814 C 3.1744908769684934 -0.571190416915691 3.086747572793369 -0.5704085205062608 2.9994058984678973 -0.5747751769567362 C 2.948069912897966 -0.5773430443997274 2.8969261969369127 -0.5837434860463153 2.84559021136698 -0.5863113534893065 C 2.7453237466670566 -0.591323181294011 2.645928904194039 -0.6054998604551463 2.5465041531151957 -0.6179290225044944 C 2.483123544713667 -0.6258505303901911 2.418431230313807 -0.6331653208434371 2.355943607429059 -0.6465558309371655 C 2.2862907371201926 -0.6614802252439302 2.21622341898775 -0.6743580163806575 2.14658336665281 -0.6892824106874205 C 2.0543537716039086 -0.7090477264798869 1.9636495154520932 -0.7360551975400247 1.8731332562511773 -0.7619175962628537 C 1.687593083685695 -0.8149284637589949 1.5106708622558391 -0.8878285541288813 1.3441781989430204 -0.9849503425591841 C 1.2993451988110787 -1.0111032820243144 1.2556700889903685 -1.0456519944103704 1.222834712452297 -1.0857850707697843 C 1.2056842633405438 -1.1067467307952619 1.1882731820923167 -1.134100287151373 1.1848080564745693 -1.1618383827252394 C 1.1744212249372825 -1.2449244897075857 1.2112515366820031 -1.3059679541967757 1.25530691306249 -1.3720531550964932 C 1.2760848487950396 -1.4032221950243047 1.296696150866563 -1.4356602143706994 1.3232421748653964 -1.462206238369534 C 1.3388501944481648 -1.4778142579523008 1.3540736748131796 -1.4944220795012262 1.3710959441856825 -1.5083509444998082 C 1.3911005288247515 -1.5247152245441553 1.412698814888505 -1.5372939296226296 1.4245041688735007 -1.560904637592623 M 1.304869745572787 -2.6854682166193324 C 1.2984906672160728 -2.6663267088912184 1.3015968895639174 -2.6430492682432796 1.3005970875977617 -2.6230874101839605 C 1.2970336908465894 -2.551832293134459 1.299605830947555 -2.48059426671686 1.3031606823827762 -2.409454511432685 C 1.3057114591938668 -2.358473156474682 1.3031606823827762 -2.3066928144753476 1.3031606823827762 -2.2556388243317675 C 1.3031606823827762 -2.1602517350393233 1.3035879481802786 -2.0647920105613045 1.3035879481802786 -1.9693707400050595 C 1.3035879481802786 -1.9109763234603854 1.3035879481802786 -1.852586179573687 1.3035879481802786 -1.7941917630290138 C 1.3035879481802786 -1.7702520603949452 1.2983325788709972 -1.7356691667450894 1.3078606061553035 -1.7134385273010322 C 1.3342143605452614 -1.7163652980139235 1.360726203280295 -1.7284740107151473 1.3856229813007683 -1.737365411961174 C 1.4227780150515905 -1.7506362876316048 1.4600569558836876 -1.7636978030612562 1.4979938860439381 -1.7745375363438969 C 1.6516472121418055 -1.8184390970372846 1.8064669738668544 -1.8572391041084888 1.9628590737267135 -1.89075383326459 C 2.319083387078513 -1.9670891406463946 2.683430023240838 -1.9960833976649184 3.0464051361931785 -2.0142336487428265 C 3.1510553479754777 -2.0194676547622334 3.2576709824262884 -2.0254621939011948 3.3625818263450653 -2.020215369907863 C 3.4074490077408077 -2.0179722244709737 3.452786181513804 -2.0219201604398975 3.497597818355871 -2.018933572515354 C 3.5459173073954346 -2.0157119884021863 3.5945999723628748 -2.0178782259955232 3.6428681895067374 -2.014660914540329 C 3.732555553060498 -2.0086834660332693 3.822328369773759 -2.0035520038052637 3.912045641933344 -1.9975702826402264 C 4.07717532735213 -1.9865596430385875 4.241753839892136 -1.963538561869151 4.405110372251286 -1.9390348683823788 C 4.514366509330662 -1.92264495239018 4.624190909920718 -1.9053962321450024 4.732395973138238 -1.882208517314539 C 4.8736927723723324 -1.851932462903508 5.011567172568429 -1.8141664390622587 5.150261923095733 -1.7745375363438969 C 5.193915669626569 -1.762065647714798 5.238496582937983 -1.7468977119034568 5.281005257131513 -1.7309564249986353 C 5.30156101464936 -1.7232485500116912 5.323996741676219 -1.7139854275218358 5.345949658351899 -1.712156729908525 C 5.351939924832886 -1.7361177958324667 5.34765872154191 -1.7652957771439164 5.34765872154191 -1.789919105053988 C 5.34765872154191 -1.8411910007542946 5.34765872154191 -1.8924628964545995 5.34765872154191 -1.9437347921549062 C 5.34765872154191 -2.110368453180901 5.34765872154191 -2.277002114206895 5.34765872154191 -2.443635775232889 C 5.34765872154191 -2.499492232940397 5.351209300319156 -2.556715941199914 5.347231455744407 -2.612405765246396 C 5.345701844189348 -2.633816054359249 5.350393222645926 -2.668356221429355 5.33569527921184 -2.686322748214338 C 5.320629887191898 -2.7047336314287223 5.297143086303184 -2.714214659475304 5.276732599156487 -2.725203935787069 C 5.233335212104152 -2.748571102252485 5.185938617187195 -2.7630981393675698 5.140007543955671 -2.7803212236648993 C 4.982073014566829 -2.8395445358567275 4.815135994824608 -2.880027970170093 4.65036094001775 -2.915337215675704 C 4.451759252022615 -2.957897161764933 4.251845858029147 -2.993992576337949 4.05047976032417 -3.0191628044688223 C 3.816808095670025 -3.0483706943860973 3.580803559761518 -3.0584712578390585 3.345491194444963 -3.0584712578390585 C 3.0678026073321063 -3.0584712578390585 2.7920965335196613 -3.0433460486074684 2.516595547290017 -3.008908425328763 C 2.2741222072073195 -2.9785981896539324 2.028034198477752 -2.9355468878975746 1.7928072863206983 -2.8683379779504237 C 1.7367628316622878 -2.852324055860028 1.6813550030421585 -2.8339302632775447 1.6253190936996995 -2.8179206138451223 C 1.5450486683228954 -2.794984985835186 1.468222005273961 -2.7640210334901765 1.391604702465804 -2.731185656952106 C 1.3708865839449065 -2.7223070736800032 1.3509460891754612 -2.7119928773282904 1.3305056934229393 -2.7025588485194336 C 1.321174208405483 -2.6982520092806084 1.3107617409203465 -2.6943083459696595 1.304869745572787 -2.6854682166193324" fill="#272852" transform="matrix(1,0,0,1,0,0)" fill-rule="evenodd"></path></g><g clip-path="url(#SvgjsClipPath2243178097eda-9e41-4410-80f4-ce48b3ec9ca8)"><path d=" M 5.119071519878045 -2.9815634142885994 C 5.087825572106684 -2.9815634142885994 5.060121657796619 -2.996637351624489 5.030627499795019 -3.0050630331512402 C 4.991639495772911 -3.016201852492131 4.95293775983513 -3.0281182955844765 4.91355667127932 -3.0379624995589354 C 4.890770586298509 -3.043657952639644 4.867980228659723 -3.0493576783783283 4.845194143678912 -3.055053131459037 C 4.835606299182954 -3.0574500925830277 4.824493115789914 -3.058458439865132 4.816140069448737 -3.0640257132065907 C 4.816140069448737 -3.132003701589247 4.829291310695867 -3.199464698356924 4.843485080488902 -3.2656951696277954 C 4.881011835483551 -3.440822874708139 4.945776785068988 -3.6027993385413555 5.035754689365048 -3.757050836755727 C 5.055024376832414 -3.790087028218624 5.076464574551093 -3.8248493735034317 5.100699090585437 -3.8544674385863087 C 5.143327399202266 -3.9065725025917435 5.184682455742538 -3.9651292801394677 5.237424145786253 -4.0082831256872264 C 5.257044191207569 -4.024335501699397 5.277215409507664 -4.039674343829738 5.296814091639106 -4.055709629210009 C 5.3300340073949295 -4.082888006589146 5.371859056312456 -4.110737191270363 5.361758492859495 -4.161244281193138 C 5.348162895182962 -4.22921799691782 5.269541715784519 -4.241591614413493 5.219906248088647 -4.200980000360875 C 5.158508152987531 -4.1507463605485 5.091824779971308 -4.10045717618245 5.040881878935081 -4.038191731512404 C 5.0119987110239075 -4.002891031322744 4.984273433423967 -3.966628983088702 4.95542871943457 -3.9313752821367673 C 4.920700555413563 -3.8889306978128637 4.892859916048296 -3.837577621611032 4.8669846993515415 -3.78952303736592 C 4.7977206409184046 -3.660886123711827 4.7469101922794 -3.5258487684111466 4.7067600252880855 -3.385329592928509 C 4.68918231037883 -3.323803318088141 4.674377550495368 -3.258897370789529 4.664887977132836 -3.195623578837377 C 4.661674938335615 -3.174196199092623 4.656898106719538 -3.1530550874321976 4.654206332195273 -3.1315337092119946 C 4.6530228059361916 -3.122069771797312 4.653215075545068 -3.110610503108294 4.6477973452327355 -3.1024796349818193 C 4.616410399748198 -3.1024796349818193 4.583545114604301 -3.110448142105244 4.552944338187168 -3.1170066720969074 C 4.493494575122664 -3.1297477381784327 4.432955284274526 -3.138446869815585 4.373492703236097 -3.151187935897111 C 4.305326717902542 -3.165796153513724 4.234913314474121 -3.171884691128135 4.165841525649858 -3.181096541722289 C 4.130673277857422 -3.1857836475208927 4.094107870907154 -3.1840788569888576 4.059452342071723 -3.191778186659853 C 4.049462867726114 -3.215085535913618 4.058644809714444 -3.2521294805570884 4.059879607869226 -3.276804080362861 C 4.062802105924144 -3.3352412234872837 4.067570392224272 -3.3938620909046344 4.074833910781815 -3.451983057338906 C 4.105075783929045 -3.69391804251675 4.1617013200720585 -3.949803255983052 4.291030404318105 -4.159962483800631 C 4.3150641054276235 -4.199018850350338 4.336457303908576 -4.241595887071467 4.365801918881052 -4.277460578113833 C 4.3862722232393985 -4.302481263215582 4.408169595361404 -4.326395329901799 4.428609991113927 -4.351377561081772 C 4.457262435494448 -4.386400538503056 4.499117393017796 -4.410699144407026 4.492272594941807 -4.462039402634934 C 4.484158817447233 -4.522907688147146 4.41011365474004 -4.5522095765398705 4.3615292609060266 -4.512456766740234 C 4.277178447163073 -4.443444795127622 4.2178355005479435 -4.351334834502023 4.163277930864843 -4.257806351428714 C 4.134561396614696 -4.208576786240471 4.108929721422519 -4.158078241633644 4.083379226731865 -4.106981524910315 C 4.062857650477818 -4.06593837240222 4.050296036031243 -4.020327748518822 4.034243660019072 -3.9775199882670425 C 4.010846584947834 -3.9151263638577447 3.9935508654649303 -3.8517585734301423 3.9752809799637214 -3.787813974175909 C 3.954844856869175 -3.716281134358033 3.937104780956868 -3.641338713476086 3.927854476440939 -3.567344822664595 C 3.919086982276186 -3.4972176873205014 3.9073542634767655 -3.4269025550255074 3.9026457943882877 -3.356275518698335 C 3.8995481173563946 -3.3098231811938574 3.8993814836953686 -3.260473981582314 3.890255086260714 -3.2148505397249916 C 3.875270874742299 -3.211855406484498 3.858808323564526 -3.214269458240388 3.843683114332936 -3.215277805522494 C 3.8101085679651856 -3.2175166783014078 3.7764613864118592 -3.2208621694958515 3.7428483861223345 -3.2225413240800367 C 3.675413025302507 -3.2259124512223325 3.6076785784244274 -3.2278778738908436 3.540324398106126 -3.232368437422595 C 3.5112788691919024 -3.2343039514852823 3.4814258079203997 -3.232368437422595 3.4523076438206 -3.232368437422595 C 3.437511429253088 -3.232368437422595 3.421476143872817 -3.2306038296789095 3.407444735082833 -3.236213829600119 C 3.4032019857136326 -3.25743612176207 3.4057356718928227 -3.28083319683331 3.4057356718928227 -3.3024400282130135 C 3.4057356718928227 -3.3408939499882435 3.4057356718928227 -3.379347871763472 3.4057356718928227 -3.417801793538702 C 3.4057356718928227 -3.5402860797087574 3.4057356718928227 -3.6627660932208395 3.4057356718928227 -3.785250379390895 C 3.4057356718928227 -3.9034620075859254 3.4057356718928227 -4.021669363122982 3.4057356718928227 -4.139880991318011 C 3.4057356718928227 -4.233879466768572 3.4057356718928227 -4.327877942219133 3.4057356718928227 -4.421876417669694 C 3.4057356718928227 -4.450362228389189 3.4057356718928227 -4.478843766450709 3.4057356718928227 -4.5073295771702035 C 3.4057356718928227 -4.522352242610394 3.4081155423849117 -4.539686416015072 3.404453874500314 -4.554328814895484 C 3.3869829760404353 -4.624208136077026 3.286225155673385 -4.6319117384059965 3.2544835795769207 -4.568428586213068 C 3.2406743490016376 -4.540814397720478 3.2452930922726404 -4.507274032616529 3.243801934639356 -4.477420971345026 C 3.240460716102886 -4.410579509983727 3.2428704952008003 -4.3434517805381 3.239529276664331 -4.276606046518827 C 3.2357052477766834 -4.200087014844095 3.2391020108668274 -4.122521181965483 3.2391020108668274 -4.045882515867451 C 3.2391020108668274 -3.899189349610899 3.2391020108668274 -3.7524919106963748 3.2391020108668274 -3.6057987444398236 C 3.2391020108668274 -3.5160729269642887 3.2391020108668274 -3.4263471094887534 3.2391020108668274 -3.336621292013217 C 3.2391020108668274 -3.3152323661902403 3.2393156437655803 -3.293864803657137 3.240383808259336 -3.2725314223878357 C 3.2408110740568383 -3.2640074697276598 3.2440540214598834 -3.2501469672566765 3.238247479271824 -3.2430500823601593 C 3.229056991967544 -3.231817264543817 3.2132310668280493 -3.2340775006126057 3.2002208232940963 -3.2340775006126057 C 3.170222491651443 -3.2340775006126057 3.1404847921452643 -3.2315139058275917 3.1104950058185614 -3.2315139058275917 C 2.9889079778232595 -3.2315139058275917 2.8682908431882908 -3.212286944939976 2.746891812143891 -3.212286944939976 C 2.7414954451214335 -3.2248827406503513 2.7418158944695605 -3.2418622834431017 2.7409100909788555 -3.255440790487733 C 2.7385387658027165 -3.2910320314196957 2.7375645997844105 -3.3266446356415336 2.7357829014088244 -3.362257239863371 C 2.732057143654603 -3.43675957697389 2.7168122999997117 -3.5106167427301815 2.707583358773656 -3.584435454564696 C 2.6779610210328046 -3.8214056111755603 2.592063505102892 -4.056529979541214 2.472159904349751 -4.26207900940374 C 2.4365643907598145 -4.323101110603055 2.3914750311493695 -4.377308322332203 2.3469710256815053 -4.431703531012253 C 2.3251804700088754 -4.458335008170586 2.301091224345681 -4.487213903423783 2.2721995111185582 -4.506475045575199 C 2.2560574092889123 -4.517237871014287 2.2372619868567747 -4.525407193062536 2.217509489038232 -4.524420209070305 C 2.183849489510982 -4.522736781828145 2.146463732229509 -4.489452776202697 2.141456177082779 -4.456057681469899 C 2.1331330393474284 -4.400572945006216 2.1887374102344106 -4.374437096172986 2.21879128643074 -4.337705055561692 C 2.2746221081903975 -4.269466435042558 2.3208693581120747 -4.197322605134254 2.3653434549741137 -4.121081296227898 C 2.4010842389352027 -4.059811380866034 2.4268526391825813 -3.992371747388231 2.4516511460696297 -3.9262480925667362 C 2.510707824600432 -3.7687621922652723 2.5477047700061775 -3.602329346164104 2.564449316610303 -3.4348924254388047 C 2.5697046859195845 -3.3823259143720654 2.572921997374778 -3.329541497748601 2.5755582273453688 -3.276804080362861 C 2.5768656606857268 -3.25069386747748 2.583723276735642 -3.2205887193854514 2.5772672905353793 -3.194769047242371 C 2.5442140084405818 -3.1865057267186727 2.5076998733860134 -3.1857537389150674 2.473868967539762 -3.1815238075197922 C 2.4095312837518277 -3.173482665210795 2.345958405741425 -3.1596606166615873 2.2815993586636143 -3.1516152016946135 C 2.185229558036914 -3.1395705788630175 2.090803816788852 -3.1077862761868023 1.9940494769443995 -3.1003433059943073 C 1.9741987079924315 -3.1797506544601566 1.9681016250620689 -3.263152938132655 1.9508956313966408 -3.3434575447732575 C 1.8999441850444616 -3.581235233741402 1.7954349709753388 -3.8073870203595015 1.641555194004796 -3.99546515176215 C 1.600311226571875 -4.045878243209476 1.553555530351171 -4.093488471025184 1.503121075613969 -4.13475380174798 C 1.4755239777532796 -4.15733479914599 1.4522038105255908 -4.189055011952579 1.419804245100972 -4.205252658335901 C 1.4057600183370635 -4.212276908046842 1.391861061944306 -4.2194037015491865 1.3757958679582099 -4.220206961248491 C 1.3359234237352708 -4.2222022925228275 1.2971917791916663 -4.192656862625526 1.2911972400527045 -4.152698965243088 C 1.2830407359783813 -4.098329392510888 1.3326633857003276 -4.075735577138954 1.3681050836031645 -4.0467370474624555 C 1.4438037649466904 -3.984800597456485 1.5030911670081437 -3.912609768310455 1.5646473504543372 -3.837376806686206 C 1.597375910543031 -3.7973761827240167 1.6194185530361882 -3.7489626952090034 1.6462551177773235 -3.7053516752579183 C 1.7632020392117471 -3.515312393844733 1.8130853210701687 -3.28578093476839 1.82997941070342 -3.0661620421941036 C 1.8049288169958453 -3.0554248527028642 1.7762208280616492 -3.0509855610668146 1.7500807065704431 -3.043516954926469 C 1.7058800598188055 -3.0308869779522936 1.661837501412241 -3.0176930101254156 1.617628309344652 -3.0050630331512402 C 1.5915736410129473 -2.997620062958744 1.5525685463589403 -2.975479149332163 1.5253388970841024 -2.9845542748711162 C 1.5208825148161509 -2.9860411598464247 1.5190623625187891 -2.9948684712228286 1.518502644324062 -2.999081311986203 C 1.516229590281347 -3.0161334899645302 1.513375454754031 -3.033249757812482 1.5116663915640203 -3.0503532076865096 C 1.5053727663668077 -3.1132980049745855 1.4885342212872326 -3.177063152593865 1.4732124697887914 -3.238350158587631 C 1.4491702233633228 -3.334510598973556 1.4172620136058316 -3.432717642529516 1.3728050073756919 -3.521627382331822 C 1.3143208650135432 -3.6385956670561197 1.241091779979581 -3.7452753913765564 1.1587448428269145 -3.8459221226362574 C 1.105981789493325 -3.9104093494533156 1.0416782869691907 -3.9669494324368295 0.9775841446858335 -4.019392036422292 C 0.9138659963042784 -4.071522736375579 0.8471099881024796 -4.122277640460906 0.7759146882646298 -4.163807875978153 C 0.6847618030254368 -4.216981104477346 0.5896396185274428 -4.264164066495552 0.5075917674330294 -4.331296068599153 C 0.34567939346943793 -4.463769829114819 0.22977072792294664 -4.64668231702566 0.1884242166986244 -4.853414873147268 C 0.1726623814287555 -4.932232594812564 0.16157483398356443 -5.016455228816267 0.16962452160851238 -5.096956377723722 C 0.17582414833027446 -5.1589440996253915 0.18192123126063575 -5.222243527525395 0.19910586163618815 -5.282389733839828 C 0.21424816149967854 -5.33539205602002 0.23494491673070228 -5.3849677065042405 0.25465041531151944 -5.436205420940747 C 0.26681039990844224 -5.467818817297959 0.2847427454296247 -5.496949799371683 0.3016496530367995 -5.525931238416282 C 0.3412742830971868 -5.593862227561212 0.3852185703703244 -5.651372203905056 0.4409383030226314 -5.707091936557362 C 0.4598448145621187 -5.725998448096851 0.47794379374432705 -5.7478573662970796 0.49861918568547575 -5.764772819220206 C 0.6170401741212822 -5.86166388411986 0.7527526093820168 -5.934623791701396 0.9032398959203902 -5.966869541438912 C 0.9918206410586188 -5.985852960821951 1.0856994820858787 -5.9827296478422065 1.174980943132011 -5.971569465211441 C 1.2572680630730282 -5.9612851774655535 1.3412770641779785 -5.927847356153005 1.4159588529234495 -5.893379824268475 C 1.4498923025611028 -5.877716260132031 1.482428593040921 -5.854144006083816 1.5112391257665179 -5.8305717520356 C 1.5561063071622605 -5.79386107471418 1.6046949736542513 -5.759073093481522 1.6419824598022985 -5.713500923519901 C 1.6762363587880778 -5.671637420680601 1.7155063582365369 -5.619404176935915 1.7774257176106065 -5.634884016779432 C 1.8642973995588255 -5.656601937266486 1.8474802177691243 -5.750557686137297 1.8577516875410856 -5.8190355755030305 C 1.8671686257180409 -5.881813739130081 1.8892198135271483 -5.940421788573505 1.9077417858488834 -6.000623539441614 C 1.9191455099842276 -6.03768030205901 1.940132805957552 -6.073916714345201 1.959440947346692 -6.107012723019749 C 1.999480025230656 -6.175652973388534 2.0473380672089174 -6.247288356997812 2.1098385080675897 -6.2984278003008916 C 2.1380679593085827 -6.3215257893138785 2.167096397590906 -6.343722247494136 2.1952916675680996 -6.366790327901299 C 2.2400221239086417 -6.403389916115367 2.2974295564610836 -6.427047623323084 2.348680088871515 -6.452670753199312 C 2.3988539114722394 -6.477759800828662 2.456432250343684 -6.488488445003951 2.5106138261249815 -6.500097256722095 C 2.62100221756774 -6.523750691271835 2.74433249001685 -6.5228491604391055 2.8541355273170312 -6.495397332949567 C 2.8919442777380313 -6.485946213508811 2.9271210708464173 -6.470927820726596 2.9639428372751864 -6.458652474364348 C 2.9985086402931427 -6.447129115805703 3.0353688606436875 -6.430803289683131 3.0664866286757992 -6.411653236639068 C 3.122565264598008 -6.377142978174787 3.1782679066184163 -6.3391804120666855 3.225002239549244 -6.292446079135855 C 3.2475319650515546 -6.269916353633546 3.2814440513993315 -6.2270744121179655 3.3155825886197854 -6.225365348927954 C 3.3640644386623992 -6.222942751856115 3.392986060495346 -6.2758382575869325 3.425817164375442 -6.3027004582759165 C 3.483921040177814 -6.35023805090605 3.545592585389332 -6.397408194950332 3.613386849479062 -6.431307463324185 C 3.823199992000664 -6.536214034584986 4.098521526595357 -6.5472161288706765 4.309830099408217 -6.441561842464245 C 4.358329040082731 -6.417310235798 4.411190364549747 -6.3931996268449325 4.453391407369074 -6.3586722777487505 C 4.499929198033052 -6.320598622533298 4.551380545368308 -6.28637890481132 4.590116462569891 -6.2390378544480365 C 4.668250558959181 -6.143539676048242 4.727273056226183 -6.038641650103391 4.761450047368413 -5.919015772118628 C 4.775912994613873 -5.868401865746476 4.788286612109547 -5.816352346294715 4.790931387396088 -5.763491021827699 C 4.793272803966402 -5.71670541700117 4.796007305070418 -5.6610925007982384 4.845194143678912 -5.640011206349461 C 4.85408554492494 -5.63619999543574 4.863434120574295 -5.634537931483455 4.872966420516578 -5.633174953589422 C 4.932971629117835 -5.62460400169152 4.965666007942731 -5.680956087724132 4.998582564982328 -5.721191707874946 C 5.085052617080893 -5.8268801755451785 5.215176415710294 -5.896682588883168 5.3408224687818695 -5.943797188373775 C 5.415153899573388 -5.971672009002842 5.4932153607771035 -5.975769488000891 5.571545999433246 -5.979687515363989 C 5.6635747795573215 -5.984289168003091 5.747536781424547 -5.961874804266109 5.834741730694817 -5.936960935613733 C 5.894285492234773 -5.919947211557182 5.951543381758088 -5.890260783946705 6.004793518100832 -5.859198560468271 C 6.239802524701157 -5.722110329339578 6.3975490571391 -5.488160941917057 6.454277137073514 -5.2234270537844765 C 6.473700640227982 -5.132786887502285 6.476289870960845 -5.035101108219278 6.4670951109985895 -4.943140690622803 C 6.450333473762567 -4.775532863578503 6.388127846304168 -4.600477793683734 6.27952542589497 -4.470157452787482 C 6.241652585604343 -4.424709189907135 6.195392517708744 -4.381123805903901 6.149636623454196 -4.343686776726727 C 6.059295543230258 -4.269769793758786 5.9513212035433884 -4.213797974285951 5.8509778309999145 -4.155262560028103 C 5.8151558665372995 -4.134369262530228 5.779603079527114 -4.109681844750531 5.747579508004297 -4.083481906047674 C 5.719285966893678 -4.0603326451389865 5.688727917056295 -4.039994793177865 5.660417285313778 -4.016828441637277 C 5.596515412639296 -3.9645439259968893 5.533245893345118 -3.901274406702712 5.480965650362707 -3.837376806686206 C 5.346812735262855 -3.673409284236627 5.2397057451449145 -3.4838912670963973 5.181025060515916 -3.2785131435528716 C 5.162861991464084 -3.2149488108584166 5.145139006183677 -3.1500770448236044 5.135307620183143 -3.0845344714867133 C 5.131675860904372 -3.060334136716168 5.127232296610345 -3.036176528525374 5.124198709448078 -3.0118992859112805 C 5.122963911293294 -3.002016628015046 5.123032273820895 -2.99080517348858 5.119071519878045 -2.9815634142885994" fill="#cc3548" transform="matrix(1,0,0,1,0,0)" fill-rule="evenodd"></path></g><g clip-path="url(#SvgjsClipPath2243178097eda-9e41-4410-80f4-ce48b3ec9ca8)"><path d=" M 1.4245041688735007 -1.560904637592623 C 1.412698814888505 -1.5372939296226296 1.3911005288247515 -1.5247152245441553 1.3710959441856825 -1.5083509444998082 C 1.3540736748131796 -1.4944220795012262 1.3388501944481648 -1.4778142579523008 1.3232421748653964 -1.462206238369534 C 1.296696150866563 -1.4356602143706994 1.2760848487950396 -1.4032221950243047 1.25530691306249 -1.3720531550964932 C 1.2112515366820031 -1.3059679541967757 1.1744212249372825 -1.2449244897075857 1.1848080564745693 -1.1618383827252394 C 1.1882731820923167 -1.134100287151373 1.2056842633405438 -1.1067467307952619 1.222834712452297 -1.0857850707697843 C 1.2556700889903685 -1.0456519944103704 1.2993451988110787 -1.0111032820243144 1.3441781989430204 -0.9849503425591841 C 1.5106708622558391 -0.8878285541288813 1.687593083685695 -0.8149284637589949 1.8731332562511773 -0.7619175962628537 C 1.9636495154520932 -0.7360551975400247 2.0543537716039086 -0.7090477264798869 2.14658336665281 -0.6892824106874205 C 2.21622341898775 -0.6743580163806575 2.2862907371201926 -0.6614802252439302 2.355943607429059 -0.6465558309371655 C 2.418431230313807 -0.6331653208434371 2.483123544713667 -0.6258505303901911 2.5465041531151957 -0.6179290225044944 C 2.645928904194039 -0.6054998604551463 2.7453237466670566 -0.591323181294011 2.84559021136698 -0.5863113534893065 C 2.8969261969369127 -0.5837434860463153 2.948069912897966 -0.5773430443997274 2.9994058984678973 -0.5747751769567362 C 3.086747572793369 -0.5704085205062608 3.1744908769684934 -0.571190416915691 3.2617470981344634 -0.5653753294116814 C 3.3230853760239296 -0.5612863957295815 3.38679070643156 -0.5648754284286035 3.448034985845575 -0.5679389241966959 C 3.526292989316142 -0.5718526789018199 3.6047774436593856 -0.5712886880491173 3.6830311744719766 -0.5752024427542395 C 3.8665717431051467 -0.5843801120845944 4.048087071858156 -0.6148527087624762 4.229931395275241 -0.6375832491896114 C 4.312145880030682 -0.6478589916195485 4.39421509441497 -0.6685130202708232 4.475181963041704 -0.6858642843073985 C 4.662337200321746 -0.7259674520609884 4.848454181713856 -0.7786194162872286 5.0272093734149985 -0.8473707557633636 C 5.075451954611011 -0.8659269093488993 5.121348846578734 -0.8898367033771413 5.16820708659084 -0.9114606253887452 C 5.244687664343796 -0.9467570529204323 5.3226337637821866 -0.9872703958396238 5.38269451693712 -1.047331148994556 C 5.408941454877702 -1.0735780869351386 5.43458167538583 -1.1020425343647595 5.445075323372492 -1.1387660296601014 C 5.477940608516389 -1.2538030729796876 5.401682208978134 -1.3566331324646272 5.333131684426823 -1.4404156826969015 C 5.30648311663659 -1.4729861544405223 5.270827785835001 -1.4984469233136997 5.241269537963775 -1.5280051711849252 C 5.2341256538295315 -1.5351490553191676 5.225144526766029 -1.5401138838861481 5.218624450696141 -1.5480866636675454 C 5.217872462892536 -1.549005285132175 5.213663894787136 -1.5550895500886126 5.21520632431612 -1.5566319796175963 C 5.2214956768553575 -1.562921332156833 5.248588601074994 -1.5523379583526955 5.25536930928136 -1.549795726857556 C 5.294451311778918 -1.5351405100032176 5.3312047156800855 -1.5151231073902238 5.369022011417037 -1.4976692995622436 C 5.47086935956772 -1.4506615165210137 5.576284377127549 -1.3904084937572048 5.625381489918568 -1.2840364008109688 C 5.633666173732142 -1.2660869646578874 5.644031641979554 -1.2495987775322632 5.648881108781207 -1.2302009103256477 C 5.656289897709901 -1.2005572092949208 5.652739318932657 -1.1684097306908283 5.650590171971218 -1.1383387638626008 C 5.6415065011163135 -1.011158826577991 5.531378741810031 -0.92700455510189 5.4318300836499125 -0.8657431850559725 C 5.211100300002121 -0.7299111153719373 4.962388879275887 -0.6573357470081547 4.715305341238137 -0.586738619286808 C 4.622849295316559 -0.5603207750272272 4.527188755913715 -0.5427644234078475 4.433309914886454 -0.5226487496614265 C 4.393518651165041 -0.5141205243432747 4.352573769790373 -0.5106596713835048 4.312820959990735 -0.502139991381302 C 4.23080729016012 -0.48456654913002506 4.146469294391092 -0.4745087122568128 4.063297734249246 -0.46411333540357447 C 3.9660819473434903 -0.4519618961226044 3.8688576151217866 -0.439443008255779 3.7710479287575023 -0.43292293218588984 C 3.693400915377364 -0.4277444707201594 3.6154719065708747 -0.4278341965376349 3.5377608033211105 -0.4239503504383384 C 3.3096948659302 -0.4125466263029933 3.0818254708061397 -0.4223951029354289 2.8541355273170312 -0.43377746378089466 C 2.710975849205827 -0.44093416588906376 2.568679248005578 -0.4677493673403239 2.426869729814482 -0.4854766252787037 C 2.2757159086320047 -0.5043703188442672 2.1293132831177557 -0.5429524203587466 1.9808042372218195 -0.5747751769567362 C 1.8512017028653722 -0.6025474537944016 1.7220990694920015 -0.6401724799224775 1.597974082659535 -0.686718815902406 C 1.394471655967046 -0.7630327599943367 1.1786383383586339 -0.8430895524723887 1.03740135633619 -1.01571347997937 C 1.0172301380360946 -1.0403709891532396 1.0004813187739956 -1.073505451749564 0.99382024499093 -1.104584765859899 C 0.9873044415790166 -1.1349847273522062 0.9854201994120309 -1.1647181542004077 0.9869839922308895 -1.1960196465254445 C 0.9949909532760874 -1.3561802307192767 1.1599839136396715 -1.4555921638241935 1.2903427084576997 -1.5126236024748332 C 1.335350887566619 -1.5323162830817258 1.3751891505257556 -1.553859024591806 1.4245041688735007 -1.560904637592623" fill="#cf3045" transform="matrix(1,0,0,1,0,0)" fill-rule="evenodd"></path></g><g clip-path="url(#SvgjsClipPath2243178097eda-9e41-4410-80f4-ce48b3ec9ca8)"><path d=" M 1.304869745572787 -2.6854682166193324 C 1.3107617409203465 -2.6943083459696595 1.321174208405483 -2.6982520092806084 1.3305056934229393 -2.7025588485194336 C 1.3509460891754612 -2.7119928773282904 1.3708865839449065 -2.7223070736800032 1.391604702465804 -2.731185656952106 C 1.468222005273961 -2.7640210334901765 1.5450486683228954 -2.794984985835186 1.6253190936996995 -2.8179206138451223 C 1.6813550030421585 -2.8339302632775447 1.7367628316622878 -2.852324055860028 1.7928072863206983 -2.8683379779504237 C 2.028034198477752 -2.9355468878975746 2.2741222072073195 -2.9785981896539324 2.516595547290017 -3.008908425328763 C 2.7920965335196613 -3.0433460486074684 3.0678026073321063 -3.0584712578390585 3.345491194444963 -3.0584712578390585 C 3.580803559761518 -3.0584712578390585 3.816808095670025 -3.0483706943860973 4.05047976032417 -3.0191628044688223 C 4.251845858029147 -2.993992576337949 4.451759252022615 -2.957897161764933 4.65036094001775 -2.915337215675704 C 4.815135994824608 -2.880027970170093 4.982073014566829 -2.8395445358567275 5.140007543955671 -2.7803212236648993 C 5.185938617187195 -2.7630981393675698 5.233335212104152 -2.748571102252485 5.276732599156487 -2.725203935787069 C 5.297143086303184 -2.714214659475304 5.320629887191898 -2.7047336314287223 5.33569527921184 -2.686322748214338 C 5.350393222645926 -2.668356221429355 5.345701844189348 -2.633816054359249 5.347231455744407 -2.612405765246396 C 5.351209300319156 -2.556715941199914 5.34765872154191 -2.499492232940397 5.34765872154191 -2.443635775232889 C 5.34765872154191 -2.277002114206895 5.34765872154191 -2.110368453180901 5.34765872154191 -1.9437347921549062 C 5.34765872154191 -1.8924628964545995 5.34765872154191 -1.8411910007542946 5.34765872154191 -1.789919105053988 C 5.34765872154191 -1.7652957771439164 5.351939924832886 -1.7361177958324667 5.345949658351899 -1.712156729908525 C 5.323996741676219 -1.7139854275218358 5.30156101464936 -1.7232485500116912 5.281005257131513 -1.7309564249986353 C 5.238496582937983 -1.7468977119034568 5.193915669626569 -1.762065647714798 5.150261923095733 -1.7745375363438969 C 5.011567172568429 -1.8141664390622587 4.8736927723723324 -1.851932462903508 4.732395973138238 -1.882208517314539 C 4.624190909920718 -1.9053962321450024 4.514366509330662 -1.92264495239018 4.405110372251286 -1.9390348683823788 C 4.241753839892136 -1.963538561869151 4.07717532735213 -1.9865596430385875 3.912045641933344 -1.9975702826402264 C 3.822328369773759 -2.0035520038052637 3.732555553060498 -2.0086834660332693 3.6428681895067374 -2.014660914540329 C 3.5945999723628748 -2.0178782259955232 3.5459173073954346 -2.0157119884021863 3.497597818355871 -2.018933572515354 C 3.452786181513804 -2.0219201604398975 3.4074490077408077 -2.0179722244709737 3.3625818263450653 -2.020215369907863 C 3.2576709824262884 -2.0254621939011948 3.1510553479754777 -2.0194676547622334 3.0464051361931785 -2.0142336487428265 C 2.683430023240838 -1.9960833976649184 2.319083387078513 -1.9670891406463946 1.9628590737267135 -1.89075383326459 C 1.8064669738668544 -1.8572391041084888 1.6516472121418055 -1.8184390970372846 1.4979938860439381 -1.7745375363438969 C 1.4600569558836876 -1.7636978030612562 1.4227780150515905 -1.7506362876316048 1.3856229813007683 -1.737365411961174 C 1.360726203280295 -1.7284740107151473 1.3342143605452614 -1.7163652980139235 1.3078606061553035 -1.7134385273010322 C 1.2983325788709972 -1.7356691667450894 1.3035879481802786 -1.7702520603949452 1.3035879481802786 -1.7941917630290138 C 1.3035879481802786 -1.852586179573687 1.3035879481802786 -1.9109763234603854 1.3035879481802786 -1.9693707400050595 C 1.3035879481802786 -2.0647920105613045 1.3031606823827762 -2.1602517350393233 1.3031606823827762 -2.2556388243317675 C 1.3031606823827762 -2.3066928144753476 1.3057114591938668 -2.358473156474682 1.3031606823827762 -2.409454511432685 C 1.299605830947555 -2.48059426671686 1.2970336908465894 -2.551832293134459 1.3005970875977617 -2.6230874101839605 C 1.3015968895639174 -2.6430492682432796 1.2984906672160728 -2.6663267088912184 1.304869745572787 -2.6854682166193324 M 1.3608415650456205 -2.364591602694917 C 1.3504803694561844 -2.3127941700636834 1.386921869325176 -2.2718791972948384 1.4398857375835925 -2.2851201643594443 C 1.472263939718335 -2.293212578564141 1.5046122332472534 -2.3129394404348345 1.5338842130341526 -2.3287012757047023 C 1.5932228869913072 -2.360652212041944 1.6564411343897845 -2.392107520054082 1.7193175691502596 -2.416290764192726 C 1.7459405009926443 -2.4265323253588615 1.7733068753226826 -2.43804286594358 1.7970799442957233 -2.453890154372951 C 1.8053731734252483 -2.4594189737926335 1.8190414062873548 -2.4702117078375467 1.8222886263483746 -2.479953368020606 C 1.8391058081380747 -2.5304091860476827 1.8020960447584031 -2.581437540243411 1.7492261749754383 -2.5701064512936433 C 1.711652420743064 -2.5620567636686955 1.6760056352574253 -2.536275545447391 1.6419824598022985 -2.519261821390839 C 1.579217114149173 -2.4878791485642777 1.5144350739318373 -2.459359156580983 1.4527037115086687 -2.426117877535285 C 1.423038647188067 -2.4101466820246387 1.3751934231837313 -2.398076423245193 1.3608415650456205 -2.364591602694917 M 1.3698141467931741 -2.129168148271013 C 1.3698141467931741 -2.1044209132796663 1.3684383509252165 -2.0544265423138928 1.3992954868208505 -2.0441422545680057 C 1.4337929273112056 -2.032644531957213 1.4706616929777008 -2.056703869014581 1.4997029492339486 -2.0723417972031735 C 1.5714237860027271 -2.1109623526394294 1.6457594894522203 -2.14474198658998 1.7176085059602488 -2.183430904553836 C 1.757668947134089 -2.20500355466974 1.8221348106612734 -2.212151711461958 1.8325430054884353 -2.2641841402818184 C 1.8362516726107574 -2.28272747589343 1.8264202866102244 -2.3235826314506234 1.8081888550307899 -2.3334011994772315 C 1.7946231659600842 -2.340707444614524 1.7680515060134 -2.33822930298901 1.7534988329504635 -2.335110262667242 C 1.7155020855785623 -2.3269665765668437 1.6853584835647568 -2.3039882219771552 1.6509550415498522 -2.2881110249419603 C 1.5858055527466632 -2.258040058113732 1.5225360334524856 -2.2224060906020204 1.458258166876202 -2.190267157313877 C 1.4299347171597583 -2.1761032961266693 1.3786670941174264 -2.164575664910049 1.3698141467931741 -2.129168148271013" fill="#cd3449" transform="matrix(1,0,0,1,0,0)" fill-rule="evenodd"></path></g><g clip-path="url(#SvgjsClipPath2243178097eda-9e41-4410-80f4-ce48b3ec9ca8)"><path d=" M 1.3608415650456205 -2.364591602694917 C 1.3751934231837313 -2.398076423245193 1.423038647188067 -2.4101466820246387 1.4527037115086687 -2.426117877535285 C 1.5144350739318373 -2.459359156580983 1.579217114149173 -2.4878791485642777 1.6419824598022985 -2.519261821390839 C 1.6760056352574253 -2.536275545447391 1.711652420743064 -2.5620567636686955 1.7492261749754383 -2.5701064512936433 C 1.8020960447584031 -2.581437540243411 1.8391058081380747 -2.5304091860476827 1.8222886263483746 -2.479953368020606 C 1.8190414062873548 -2.4702117078375467 1.8053731734252483 -2.4594189737926335 1.7970799442957233 -2.453890154372951 C 1.7733068753226826 -2.43804286594358 1.7459405009926443 -2.4265323253588615 1.7193175691502596 -2.416290764192726 C 1.6564411343897845 -2.392107520054082 1.5932228869913072 -2.360652212041944 1.5338842130341526 -2.3287012757047023 C 1.5046122332472534 -2.3129394404348345 1.472263939718335 -2.293212578564141 1.4398857375835925 -2.2851201643594443 C 1.386921869325176 -2.2718791972948384 1.3504803694561844 -2.3127941700636834 1.3608415650456205 -2.364591602694917" fill="#26264b" transform="matrix(1,0,0,1,0,0)" fill-rule="evenodd"></path></g><g clip-path="url(#SvgjsClipPath2243178097eda-9e41-4410-80f4-ce48b3ec9ca8)"><path d=" M 1.3698141467931741 -2.129168148271013 C 1.3786670941174264 -2.164575664910049 1.4299347171597583 -2.1761032961266693 1.458258166876202 -2.190267157313877 C 1.5225360334524856 -2.2224060906020204 1.5858055527466632 -2.258040058113732 1.6509550415498522 -2.2881110249419603 C 1.6853584835647568 -2.3039882219771552 1.7155020855785623 -2.3269665765668437 1.7534988329504635 -2.335110262667242 C 1.7680515060134 -2.33822930298901 1.7946231659600842 -2.340707444614524 1.8081888550307899 -2.3334011994772315 C 1.8264202866102244 -2.3235826314506234 1.8362516726107574 -2.28272747589343 1.8325430054884353 -2.2641841402818184 C 1.8221348106612734 -2.212151711461958 1.757668947134089 -2.20500355466974 1.7176085059602488 -2.183430904553836 C 1.6457594894522203 -2.14474198658998 1.5714237860027271 -2.1109623526394294 1.4997029492339486 -2.0723417972031735 C 1.4706616929777008 -2.056703869014581 1.4337929273112056 -2.032644531957213 1.3992954868208505 -2.0441422545680057 C 1.3684383509252165 -2.0544265423138928 1.3698141467931741 -2.1044209132796663 1.3698141467931741 -2.129168148271013" fill="#26264b" transform="matrix(1,0,0,1,0,0)" fill-rule="evenodd"></path></g></g><g><path d=" M 1.0305 0.05249999999999977 L 1.0305 1.1099999999999999 L 0.7365 1.1099999999999999 L 0.7365 0.6854999999999999 L 0.378 0.6854999999999999 L 0.378 1.1099999999999999 L 0.084 1.1099999999999999 L 0.084 0.05249999999999977 L 0.378 0.05249999999999977 L 0.378 0.44999999999999984 L 0.7365 0.44999999999999984 L 0.7365 0.05249999999999977 L 1.0305 0.05249999999999977 M 1.3627214355468749 1.0679999999999998 Q 1.2629714355468749 1.0154999999999998 1.205971435546875 0.9179999999999999 Q 1.148971435546875 0.8204999999999999 1.148971435546875 0.6884999999999999 Q 1.148971435546875 0.5579999999999998 1.206721435546875 0.4604999999999999 Q 1.264471435546875 0.3629999999999999 1.364221435546875 0.3104999999999999 Q 1.463971435546875 0.2579999999999999 1.589971435546875 0.2579999999999999 Q 1.715971435546875 0.2579999999999999 1.815721435546875 0.3104999999999999 Q 1.915471435546875 0.3629999999999999 1.9732214355468751 0.4604999999999999 Q 2.030971435546875 0.5579999999999998 2.030971435546875 0.6884999999999999 Q 2.030971435546875 0.819 1.9732214355468751 0.9172499999999999 Q 1.915471435546875 1.0154999999999998 1.814971435546875 1.0679999999999998 Q 1.714471435546875 1.1204999999999998 1.588471435546875 1.1204999999999998 Q 1.4624714355468749 1.1204999999999998 1.3627214355468749 1.0679999999999998 M 1.691221435546875 0.8197499999999999 Q 1.7324714355468749 0.7739999999999998 1.7324714355468749 0.6884999999999999 Q 1.7324714355468749 0.6029999999999999 1.691221435546875 0.5579999999999998 Q 1.6499714355468749 0.5129999999999999 1.589971435546875 0.5129999999999999 Q 1.529971435546875 0.5129999999999999 1.489471435546875 0.5579999999999998 Q 1.448971435546875 0.6029999999999999 1.448971435546875 0.6884999999999999 Q 1.448971435546875 0.7754999999999999 1.487971435546875 0.8204999999999999 Q 1.526971435546875 0.8654999999999999 1.588471435546875 0.8654999999999999 Q 1.6499714355468749 0.8654999999999999 1.691221435546875 0.8197499999999999 M 3.498700927734375 0.3569999999999999 Q 3.589450927734375 0.45299999999999985 3.589450927734375 0.6194999999999999 L 3.589450927734375 1.1099999999999999 L 3.295450927734375 1.1099999999999999 L 3.295450927734375 0.6584999999999999 Q 3.295450927734375 0.5909999999999999 3.257950927734375 0.5534999999999999 Q 3.220450927734375 0.5159999999999999 3.155950927734375 0.5159999999999999 Q 3.0914509277343747 0.5159999999999999 3.053950927734375 0.5534999999999999 Q 3.016450927734375 0.5909999999999999 3.016450927734375 0.6584999999999999 L 3.016450927734375 1.1099999999999999 L 2.722450927734375 1.1099999999999999 L 2.722450927734375 0.6584999999999999 Q 2.722450927734375 0.5909999999999999 2.685700927734375 0.5534999999999999 Q 2.648950927734375 0.5159999999999999 2.584450927734375 0.5159999999999999 Q 2.5184509277343747 0.5159999999999999 2.480950927734375 0.5534999999999999 Q 2.443450927734375 0.5909999999999999 2.443450927734375 0.6584999999999999 L 2.443450927734375 1.1099999999999999 L 2.149450927734375 1.1099999999999999 L 2.149450927734375 0.26849999999999985 L 2.443450927734375 0.26849999999999985 L 2.443450927734375 0.37949999999999984 Q 2.4824509277343747 0.3254999999999999 2.544700927734375 0.2932499999999999 Q 2.606950927734375 0.2609999999999999 2.687950927734375 0.2609999999999999 Q 2.780950927734375 0.2609999999999999 2.853700927734375 0.3014999999999999 Q 2.9264509277343747 0.34199999999999986 2.968450927734375 0.41549999999999987 Q 3.013450927734375 0.3464999999999998 3.086950927734375 0.30374999999999985 Q 3.1604509277343746 0.2609999999999999 3.248950927734375 0.2609999999999999 Q 3.407950927734375 0.2609999999999999 3.498700927734375 0.3569999999999999 M 4.547975830078125 0.7484999999999999 L 3.991475830078125 0.7484999999999999 Q 3.995975830078125 0.8174999999999999 4.0297258300781245 0.8512499999999998 Q 4.063475830078125 0.8849999999999999 4.115975830078125 0.8849999999999999 Q 4.189475830078125 0.8849999999999999 4.220975830078125 0.819 L 4.534475830078125 0.819 Q 4.514975830078125 0.9059999999999999 4.458725830078125 0.9742499999999998 Q 4.402475830078124 1.0425 4.316975830078125 1.0815 Q 4.231475830078125 1.1204999999999998 4.127975830078125 1.1204999999999998 Q 4.003475830078125 1.1204999999999998 3.9067258300781247 1.0679999999999998 Q 3.809975830078125 1.0154999999999998 3.7552258300781247 0.9179999999999999 Q 3.700475830078125 0.8204999999999999 3.700475830078125 0.6884999999999999 Q 3.700475830078125 0.5564999999999999 3.7544758300781247 0.4597499999999999 Q 3.808475830078125 0.3629999999999999 3.9052258300781246 0.3104999999999999 Q 4.001975830078125 0.2579999999999999 4.127975830078125 0.2579999999999999 Q 4.252475830078125 0.2579999999999999 4.348475830078125 0.30899999999999983 Q 4.444475830078125 0.3599999999999999 4.4984758300781245 0.4552499999999998 Q 4.552475830078125 0.5504999999999999 4.552475830078125 0.6794999999999999 Q 4.552475830078125 0.7139999999999999 4.547975830078125 0.7484999999999999 M 4.252475830078125 0.6059999999999999 Q 4.252475830078125 0.5519999999999998 4.216475830078124 0.5212499999999999 Q 4.180475830078125 0.4904999999999998 4.126475830078125 0.4904999999999998 Q 4.072475830078125 0.4904999999999998 4.037975830078125 0.5197499999999998 Q 4.003475830078125 0.5489999999999998 3.992975830078125 0.6059999999999999 L 4.252475830078125 0.6059999999999999 M 6.305236083984375 0.3569999999999999 Q 6.395986083984375 0.45299999999999985 6.395986083984375 0.6194999999999999 L 6.395986083984375 1.1099999999999999 L 6.101986083984375 1.1099999999999999 L 6.101986083984375 0.6584999999999999 Q 6.101986083984375 0.5909999999999999 6.064486083984375 0.5534999999999999 Q 6.026986083984375 0.5159999999999999 5.962486083984375 0.5159999999999999 Q 5.8979860839843745 0.5159999999999999 5.860486083984375 0.5534999999999999 Q 5.822986083984375 0.5909999999999999 5.822986083984375 0.6584999999999999 L 5.822986083984375 1.1099999999999999 L 5.528986083984375 1.1099999999999999 L 5.528986083984375 0.6584999999999999 Q 5.528986083984375 0.5909999999999999 5.492236083984375 0.5534999999999999 Q 5.455486083984375 0.5159999999999999 5.390986083984375 0.5159999999999999 Q 5.324986083984375 0.5159999999999999 5.2874860839843745 0.5534999999999999 Q 5.249986083984375 0.5909999999999999 5.249986083984375 0.6584999999999999 L 5.249986083984375 1.1099999999999999 L 4.955986083984374 1.1099999999999999 L 4.955986083984374 0.26849999999999985 L 5.249986083984375 0.26849999999999985 L 5.249986083984375 0.37949999999999984 Q 5.2889860839843745 0.3254999999999999 5.351236083984375 0.2932499999999999 Q 5.413486083984375 0.2609999999999999 5.494486083984375 0.2609999999999999 Q 5.587486083984375 0.2609999999999999 5.660236083984374 0.3014999999999999 Q 5.7329860839843745 0.34199999999999986 5.774986083984375 0.41549999999999987 Q 5.819986083984375 0.3464999999999998 5.893486083984374 0.30374999999999985 Q 5.9669860839843745 0.2609999999999999 6.055486083984375 0.2609999999999999 Q 6.214486083984375 0.2609999999999999 6.305236083984375 0.3569999999999999 M 6.554260986328124 0.4604999999999999 Q 6.601510986328124 0.3629999999999999 6.683260986328125 0.3104999999999999 Q 6.765010986328124 0.2579999999999999 6.8655109863281245 0.2579999999999999 Q 6.952510986328124 0.2579999999999999 7.015510986328125 0.29249999999999987 Q 7.078510986328125 0.32699999999999985 7.113010986328125 0.38549999999999984 L 7.113010986328125 0.26849999999999985 L 7.407010986328125 0.26849999999999985 L 7.407010986328125 1.1099999999999999 L 7.113010986328125 1.1099999999999999 L 7.113010986328125 0.9929999999999999 Q 7.078510986328125 1.0514999999999999 7.014760986328125 1.0859999999999999 Q 6.951010986328125 1.1204999999999998 6.8655109863281245 1.1204999999999998 Q 6.765010986328124 1.1204999999999998 6.683260986328125 1.0679999999999998 Q 6.601510986328124 1.0154999999999998 6.554260986328124 0.9172499999999999 Q 6.507010986328124 0.819 6.507010986328124 0.6884999999999999 Q 6.507010986328124 0.5579999999999998 6.554260986328124 0.4604999999999999 M 7.068760986328124 0.5609999999999998 Q 7.024510986328124 0.5144999999999998 6.9600109863281245 0.5144999999999998 Q 6.894010986328125 0.5144999999999998 6.850510986328125 0.5602499999999999 Q 6.807010986328125 0.6059999999999999 6.807010986328125 0.6884999999999999 Q 6.807010986328125 0.7694999999999999 6.850510986328125 0.8167499999999999 Q 6.894010986328125 0.8639999999999999 6.9600109863281245 0.8639999999999999 Q 7.024510986328124 0.8639999999999999 7.068760986328124 0.8174999999999999 Q 7.113010986328125 0.7709999999999999 7.113010986328125 0.6884999999999999 Q 7.113010986328125 0.6074999999999998 7.068760986328124 0.5609999999999998 M 8.1 1.1099999999999999 L 7.8675 0.7649999999999999 L 7.8675 1.1099999999999999 L 7.573499999999999 1.1099999999999999 L 7.573499999999999 -2.220446049250313e-16 L 7.8675 -2.220446049250313e-16 L 7.8675 0.5984999999999998 L 8.1 0.26849999999999985 L 8.452499999999999 0.26849999999999985 L 8.121 0.6914999999999999 L 8.458499999999999 1.1099999999999999 L 8.1 1.1099999999999999 M 9.341958984375 0.7484999999999999 L 8.785458984375 0.7484999999999999 Q 8.789958984375 0.8174999999999999 8.823708984375 0.8512499999999998 Q 8.857458984375 0.8849999999999999 8.909958984374999 0.8849999999999999 Q 8.983458984375 0.8849999999999999 9.014958984375 0.819 L 9.328458984374999 0.819 Q 9.308958984375 0.9059999999999999 9.252708984375 0.9742499999999998 Q 9.196458984374999 1.0425 9.110958984375 1.0815 Q 9.025458984375 1.1204999999999998 8.921958984375 1.1204999999999998 Q 8.797458984375 1.1204999999999998 8.700708984375 1.0679999999999998 Q 8.603958984375 1.0154999999999998 8.549208984375 0.9179999999999999 Q 8.494458984375 0.8204999999999999 8.494458984375 0.6884999999999999 Q 8.494458984375 0.5564999999999999 8.548458984375 0.4597499999999999 Q 8.602458984375 0.3629999999999999 8.699208984375 0.3104999999999999 Q 8.795958984375 0.2579999999999999 8.921958984375 0.2579999999999999 Q 9.046458984374999 0.2579999999999999 9.142458984374999 0.30899999999999983 Q 9.238458984374999 0.3599999999999999 9.292458984375 0.4552499999999998 Q 9.346458984375 0.5504999999999999 9.346458984375 0.6794999999999999 Q 9.346458984375 0.7139999999999999 9.341958984375 0.7484999999999999 M 9.046458984374999 0.6059999999999999 Q 9.046458984374999 0.5519999999999998 9.010458984375 0.5212499999999999 Q 8.974458984375 0.4904999999999998 8.920458984375 0.4904999999999998 Q 8.866458984374999 0.4904999999999998 8.831958984375 0.5197499999999998 Q 8.797458984375 0.5489999999999998 8.786958984375 0.6059999999999999 L 9.046458984374999 0.6059999999999999" fill="#26264b" fill-rule="nonzero"></path></g><g></g></g><defs><clipPath id="SvgjsClipPath22433"><path d=" M 0 -6.686743947970509 h 6.634429892383258 v 6.436743947970509 h -6.634429892383258 Z"></path></clipPath><clipPath id="SvgjsClipPath2243178097eda-9e41-4410-80f4-ce48b3ec9ca8"><path d=" M 0 -6.686743947970509 L 6.634429892383258 -6.686743947970509 L 6.634429892383258 -0.25 L 0 -0.25 Z"></path></clipPath></defs></svg>